<?xml version="1.0" encoding="utf-8"?>
<!-- Generator: Adobe Illustrator 19.0.0, SVG Export Plug-In . SVG Version: 6.00 Build 0)  -->
<svg version="1.1" id="Layer_1" xmlns="http://www.w3.org/2000/svg" xmlns:xlink="http://www.w3.org/1999/xlink" x="0px" y="0px"
	 width="180px" height="40px" viewBox="-451 233 180 40" style="enable-background:new -451 233 180 40;" xml:space="preserve">
<style type="text/css">
	.st0{fill:#282829;}
</style>
<g id="XMLID_5_">
	<g id="XMLID_1_">
		<path id="XMLID_6_" class="st0" d="M-417.5,272c-0.9,0-1.6-0.8-1.6-1.7l0,0c0-0.9,0.7-1.7,1.6-1.7c0.6,0,0.9,0.2,1.4,0.6l0.8-0.9
			c-0.5-0.4-1.1-0.8-2.1-0.8c-1.6,0-2.8,1.2-2.8,2.7l0,0c0,1.6,1.1,2.7,2.7,2.7c1,0,1.6-0.3,2.1-0.9l-0.8-0.8
			C-416.5,271.8-416.8,272-417.5,272z"/>
		<path id="XMLID_78_" class="st0" d="M-408.9,267.6c-1.7,0-2.8,1.2-2.8,2.7l0,0c0,1.5,1.1,2.7,2.8,2.7s2.8-1.2,2.8-2.7l0,0
			C-406.1,268.8-407.2,267.6-408.9,267.6z M-407.4,270.4c0,0.9-0.7,1.7-1.6,1.7c-0.9,0-1.6-0.8-1.6-1.7l0,0c0-0.9,0.7-1.7,1.6-1.7
			C-408,268.7-407.4,269.5-407.4,270.4L-407.4,270.4z"/>
		<polygon id="XMLID_79_" class="st0" points="-402.1,273 -400.8,273 -400.8,271 -398.4,271 -398.4,270 -400.8,270 -400.8,268.8 
			-398,268.8 -398,267.7 -402.1,267.7 		"/>
		<polygon id="XMLID_82_" class="st0" points="-394,273 -392.8,273 -392.8,271 -390.4,271 -390.4,270 -392.8,270 -392.8,268.8 
			-390,268.8 -390,267.7 -394,267.7 		"/>
		<polygon id="XMLID_83_" class="st0" points="-384.9,270.9 -382.4,270.9 -382.4,269.9 -384.9,269.9 -384.9,268.7 -382,268.7 
			-382,267.7 -386,267.7 -386,273 -382,273 -382,272 -384.9,272 		"/>
		<polygon id="XMLID_84_" class="st0" points="-376.8,270.9 -374.3,270.9 -374.3,269.9 -376.8,269.9 -376.8,268.7 -373.9,268.7 
			-373.9,267.7 -377.9,267.7 -377.9,273 -373.9,273 -373.9,272 -376.8,272 		"/>
		<path id="XMLID_100_" class="st0" d="M-360.1,269.5L-360.1,269.5c0-0.6-0.1-0.9-0.4-1.2c-0.3-0.3-0.9-0.6-1.6-0.6h-2.5v5.3h1.1
			v-1.7h0.9l0,0l1.1,1.7h1.3l-1.2-1.9C-360.5,270.9-360.1,270.3-360.1,269.5z M-361.2,269.5c0,0.4-0.3,0.8-0.9,0.8h-1.1v-1.6h1.1
			C-361.7,268.7-361.2,269.1-361.2,269.5L-361.2,269.5z"/>
		<path id="XMLID_103_" class="st0" d="M-353.5,267.6c-1.7,0-2.8,1.2-2.8,2.7l0,0c0,1.5,1.1,2.7,2.8,2.7s2.8-1.2,2.8-2.7l0,0
			C-350.6,268.8-351.8,267.6-353.5,267.6z M-351.9,270.4c0,0.9-0.7,1.7-1.6,1.7c-0.9,0-1.6-0.8-1.6-1.7l0,0c0-0.9,0.7-1.7,1.6-1.7
			C-352.5,268.7-351.9,269.5-351.9,270.4L-351.9,270.4z"/>
		<path id="XMLID_106_" class="st0" d="M-345,267.7l-2.2,5.3h1.2l0.5-1.2h2.2l0.4,1.2h1.2l-2.2-5.3H-345z M-345.2,270.8l0.7-1.7
			l0.7,1.7H-345.2z"/>
		<path id="XMLID_107_" class="st0" d="M-335.8,269.9c-0.9-0.2-1.1-0.3-1.1-0.7l0,0c0-0.2,0.2-0.4,0.7-0.4s0.9,0.2,1.4,0.6l0.6-0.9
			c-0.6-0.5-1.2-0.7-2-0.7c-1.1,0-1.8,0.7-1.8,1.6l0,0c0,1,0.7,1.4,1.8,1.6c0.9,0.2,1,0.3,1,0.7l0,0c0,0.3-0.3,0.4-0.8,0.4
			c-0.6,0-1.1-0.2-1.6-0.7l-0.7,0.8c0.7,0.6,1.5,0.9,2.2,0.9c1.1,0,1.9-0.6,1.9-1.7l0,0C-334.1,270.5-334.7,270.1-335.8,269.9z"/>
		<polygon id="XMLID_108_" class="st0" points="-330.6,268.8 -328.9,268.8 -328.9,273 -327.8,273 -327.8,268.8 -326.2,268.8 
			-326.2,267.7 -330.6,267.7 		"/>
		<polygon id="XMLID_109_" class="st0" points="-321.1,270.9 -318.6,270.9 -318.6,269.9 -321.1,269.9 -321.1,268.7 -318.2,268.7 
			-318.2,267.7 -322.3,267.7 -322.3,273 -318.2,273 -318.2,272 -321.1,272 		"/>
		<path id="XMLID_112_" class="st0" d="M-309.7,269.5L-309.7,269.5c0-0.6-0.1-0.9-0.4-1.2c-0.3-0.3-0.9-0.6-1.6-0.6h-2.5v5.3h1.1
			v-1.7h0.9l0,0l1.1,1.7h1.3l-1.2-1.9C-310.1,270.9-309.7,270.3-309.7,269.5z M-310.9,269.5c0,0.4-0.3,0.8-0.9,0.8h-1.1v-1.6h1.1
			C-311.3,268.7-310.9,269.1-310.9,269.5L-310.9,269.5z"/>
		<path id="XMLID_113_" class="st0" d="M-303.5,269.9c-0.9-0.2-1.1-0.3-1.1-0.7l0,0c0-0.2,0.2-0.4,0.7-0.4s0.9,0.2,1.4,0.6l0.6-0.9
			c-0.6-0.5-1.2-0.7-2-0.7c-1.1,0-1.8,0.7-1.8,1.6l0,0c0,1,0.7,1.4,1.8,1.6c0.9,0.2,1,0.3,1,0.7l0,0c0,0.3-0.3,0.4-0.8,0.4
			c-0.6,0-1.1-0.2-1.6-0.7l-0.7,0.8c0.7,0.6,1.5,0.9,2.2,0.9c1.1,0,1.9-0.6,1.9-1.7l0,0C-301.8,270.5-302.4,270.1-303.5,269.9z"/>
	</g>
	<path id="XMLID_114_" class="st0" d="M-430.2,236.7h4.6c0.6,0,0.7,0.2,0.8,0.7c0,0.1,0,0.2-0.1,0.3l-7.4,15.2l-7.5-15.2
		c0-0.1-0.1-0.2-0.1-0.3c0-0.4,0.2-0.7,0.8-0.7h4.6v-3.9H-451v3.9h4.8c0.7,0,1.7,0.7,2,1.4l10,20.2h3.5l10-20.1
		c0.3-0.8,1.4-1.4,2-1.4h4.8v-4.1h-16.4V236.7z"/>
	<path id="XMLID_117_" class="st0" d="M-330.1,254.3l-2.1-4.3l-0.2,0.4c-0.3,0.7-0.7,1.4-1.1,1.9c-1.4,1.7-3.7,3.1-7.3,3.1
		c-5.3,0-5.4-3.3-9.7-8.1c2.6-0.6,4.5-2.9,4.5-5.6v-3.1c0-3.3-2.6-5.9-5.8-5.9h-24.4v3.9h5.6c0.7,0,1.2,0.6,1.2,1.4v15.1
		c0,0.7-0.6,1.4-1.4,1.4h-5.5v3.9h17.9v-3.9h-5.7c-0.7,0-1.4-0.6-1.4-1.4v-5.5h6.3c4,0.1,5.4,2.1,7.4,5.1c2.5,3.6,4.8,6.9,10.7,6.9
		l0,0C-335.9,259.5-331.8,257.1-330.1,254.3L-330.1,254.3z M-351.9,243.6h-13.6v-5.5c0-0.7,0.6-1.4,1.4-1.4h12.3
		c1,0,1.8,0.8,1.8,1.8v3.3C-350.1,242.8-350.9,243.6-351.9,243.6z"/>
	<path id="XMLID_118_" class="st0" d="M-410.7,236.7h3.1c0.7,0,1.4,0.6,1.4,1.4v15.1c0,0.7-0.6,1.4-1.4,1.4h-3.1v3.9h29.6v-7.8h-3.9
		v2.5c0,0.7-0.6,1.2-1.2,1.4h-14.6c-0.7,0-1.2-0.6-1.2-1.4v-5.5h14.1v-4.1h-14.1v-5.5c0-0.7,0.6-1.4,1.3-1.4h14.5
		c0.7,0,1.4,0.6,1.4,1.4v2.5h4v-7.8h-29.8V236.7z"/>
	<path id="XMLID_119_" class="st0" d="M-303.7,232.8h-16.5v3.9h4.6c0.6,0,0.7,0.2,0.8,0.7c0,0.1,0,0.2-0.1,0.3l-7.4,15.2l-7.4-15.2
		c0-0.1-0.1-0.2-0.1-0.3c0-0.4,0.2-0.7,0.8-0.7h4.6v-3.9H-341v3.9h4.8c0.7,0,1.7,0.7,2,1.4l9.9,20.2h3.5l10-20.4
		c0.3-0.8,1.4-1.3,2-1.3h4.8v-3.8H-303.7z"/>
	<path id="XMLID_120_" class="st0" d="M-271,240.6v-7.8h-29.6v3.9h3.1c0.7,0,1.4,0.6,1.4,1.4v15.1c0,0.7-0.6,1.4-1.4,1.4h-3.1v3.9
		h29.6v-7.8h-3.9v2.5c0,0.7-0.6,1.2-1.2,1.4h-14.6c-0.7,0-1.2-0.6-1.2-1.4v-5.5h14.1v-4.1H-292v-5.5c0-0.7,0.6-1.4,1.3-1.4h14.5
		c0.7,0,1.4,0.6,1.4,1.4v2.5C-274.8,240.6-271,240.6-271,240.6z"/>
</g>
</svg>
